<?xml version="1.0" encoding="UTF-8"?>
<svg width="462px" height="255px" viewBox="0 0 462 255" version="1.1" xmlns="http://www.w3.org/2000/svg" xmlns:xlink="http://www.w3.org/1999/xlink">
    <title>Heylemonade_Primary_Logo_W_Tagline_2_Full_Color_RGB</title>
    <g id="Symbols" stroke="none" stroke-width="1" fill="none" fill-rule="evenodd">
        <g id="Heylemonade_Primary_Logo_W_Tagline_2_Full_Color_RGB" transform="translate(0.000270, 0.000140)" fill-rule="nonzero">
            <path d="M461.048013,159.846094 C460.981313,159.095494 460.672713,158.469994 460.130713,157.961394 C459.571913,157.452594 459.080013,157.219094 458.621313,157.260794 C458.171013,157.294194 457.904113,157.369194 457.812413,157.477594 C449.831813,166.767394 441.626113,171.779294 433.203513,172.521494 C429.592613,172.838394 426.523813,172.171194 424.013713,170.520094 C421.487013,168.868994 419.769113,166.267094 418.851813,162.706294 C427.574513,160.729894 434.362613,157.510994 439.232713,153.041094 C444.094413,148.579794 446.287713,143.634594 445.820713,138.214094 C445.520513,134.811794 444.002813,132.159894 441.259213,130.275194 C438.515613,128.398894 435.288313,127.614994 431.577413,127.940294 C424.856013,128.532294 419.502313,131.976394 415.507913,138.289094 C411.513413,144.601894 409.870613,151.823494 410.579413,159.945894 C410.646113,160.738194 410.746213,161.505394 410.871313,162.255894 C410.471013,162.506094 410.070713,162.872994 409.670513,163.356694 C405.551013,170.594994 400.130513,174.506194 393.409113,175.089894 C387.896913,175.573494 384.753013,171.403994 383.977513,162.572894 L383.769013,160.171094 C384.027513,159.645794 385.778713,156.560294 389.022713,150.914594 C392.266613,145.277294 394.451513,141.399594 395.585613,139.273194 C396.711413,137.154994 398.554313,133.410694 401.114513,128.031894 C403.683013,122.653194 405.475913,118.350194 406.509913,115.131194 C409.428613,105.774694 410.604513,97.8941937 410.045713,91.4730937 L409.670513,88.9295937 C409.270213,86.6362937 408.169413,84.7432937 406.368213,83.2254937 C404.567013,81.7161937 402.415413,81.0739937 399.905313,81.2908937 C393.192313,81.8829937 387.871913,86.9948937 383.969213,96.6349937 C380.058113,106.275094 377.639813,118.967294 376.689113,134.711494 C374.912913,134.061094 372.919813,133.827594 370.718313,134.027694 C364.197113,134.594794 358.493113,138.705994 353.606313,146.361394 C349.261613,153.174494 347.126813,160.129294 347.193513,167.225894 C347.160213,167.250894 347.126813,167.284294 347.101813,167.317694 L346.192913,169.068894 C345.750913,169.811094 345.417313,170.319794 345.192213,170.594894 C344.958713,170.870194 344.600113,171.378794 344.116413,172.129394 C343.624413,172.879794 343.190813,173.446994 342.823813,173.830594 C342.448513,174.222494 341.964913,174.739394 341.364413,175.398294 C340.764013,176.057094 340.180313,176.590794 339.613213,176.991094 C339.037813,177.399694 338.420713,177.833394 337.753613,178.291994 C336.419313,179.217694 334.909913,179.859894 333.225413,180.201694 L332.625013,180.260094 C329.914813,180.493594 328.388713,178.658894 328.046813,174.747794 C328.005113,174.247594 328.030113,173.380294 328.121813,172.162794 L331.132313,144.159794 C331.215713,143.951294 331.232413,143.592794 331.190613,143.092394 C331.048813,141.491294 330.073213,140.765694 328.271913,140.924194 L325.111413,141.199394 L325.186513,140.282094 C325.003013,138.172394 322.601313,137.321794 317.989813,137.730394 C313.369913,138.130694 308.808413,140.573994 304.305213,145.068794 C299.793713,149.555294 296.433013,154.725494 294.214813,160.579594 C292.688713,164.599094 291.796413,168.435094 291.537913,172.104394 L291.529613,172.112694 C287.610213,180.184994 283.265513,184.629794 278.503813,185.446994 L277.303013,185.555394 C274.492713,185.797194 272.983313,184.721494 272.774813,182.311494 C273.191813,174.389294 275.309913,162.839494 279.137613,147.645494 C279.221013,147.436994 279.229313,146.903394 279.154313,146.052794 C279.079213,145.202194 278.420413,144.326494 277.177913,143.417594 C275.935413,142.516994 274.309213,142.158394 272.307813,142.333594 C268.596913,142.658694 263.860213,146.327994 258.114613,153.349594 C252.360613,160.371094 247.523913,170.369794 243.604413,183.345494 C243.370913,178.316994 243.779513,172.012494 244.830213,164.440694 C246.031013,156.251594 247.156913,150.597594 248.199313,147.470394 C248.149313,146.869994 247.690613,146.302994 246.840013,145.769194 C245.981013,145.243894 245.155513,145.010394 244.354913,145.077094 C243.546013,145.152094 242.953913,145.277194 242.562013,145.460794 C242.178413,145.652594 241.803113,146.036194 241.452913,146.619894 C241.102713,147.211894 240.885813,147.612294 240.802513,147.820794 L240.060313,149.697094 C239.710113,150.747694 239.384813,151.848594 239.084613,152.999394 C238.475813,152.524094 237.892113,152.315594 237.333313,152.365594 C236.682913,152.423894 236.232513,152.715894 235.974013,153.241294 C233.497313,157.302494 231.128913,160.262894 228.869113,162.122494 C226.600813,163.990494 223.657113,165.541494 220.021213,166.767394 C220.121313,165.541594 220.079613,163.881994 219.887813,161.772194 C219.470813,156.960494 218.044813,153.349694 215.609813,150.931294 C213.174813,148.512894 209.897513,147.487194 205.786313,147.845694 C199.165013,148.429494 193.527713,152.382294 188.866113,159.712294 C184.196213,167.042494 182.219813,174.722794 182.920313,182.745194 C182.978713,183.437294 183.062113,184.112694 183.178813,184.763194 C178.075213,191.126094 173.497013,194.486694 169.427513,194.836994 L169.127313,194.861994 C166.917413,195.062094 165.691613,193.777894 165.449713,191.017594 C165.207913,188.257394 166.091813,182.778594 168.101613,174.564394 C170.119713,166.358694 170.995313,160.846494 170.753413,158.036194 C170.411513,154.125094 168.535213,152.323894 165.124513,152.615694 C161.313513,152.949294 157.135613,156.351594 152.599113,162.806094 C148.062613,169.268994 144.259913,178.700494 141.207813,191.092594 C141.566413,188.332294 142.141813,184.446294 142.909013,179.426094 C144.393313,169.794294 144.993813,163.348194 144.710213,160.087494 C144.418313,156.835194 142.875613,155.325894 140.065313,155.567594 C136.654613,155.867894 132.685213,159.320194 128.165313,165.933194 C123.637113,172.546194 119.384113,182.544894 115.398013,195.929194 C117.199213,177.174294 118.408413,166.208294 119.042213,163.014394 C119.667613,159.828894 119.976213,158.135994 119.959513,157.935894 C119.826113,156.426494 119.000513,155.642594 117.482813,155.575894 C114.972713,155.792694 113.263213,158.269394 112.370913,162.997794 C111.078313,169.852694 110.077613,178.125094 109.368813,187.831894 C109.302113,187.823594 109.227013,187.823594 109.160313,187.831894 C108.710013,187.873494 108.434813,187.948694 108.351413,188.057094 C100.370813,197.346894 92.1651131,202.358794 83.7425131,203.092494 C80.1316131,203.409494 77.0628131,202.742294 74.5444131,201.091194 C72.0260131,199.448394 70.3081131,196.838094 69.3908131,193.285694 C78.1136131,191.309394 84.9017131,188.090394 89.7717131,183.620694 C94.6334131,179.150794 96.8267131,174.205794 96.3513131,168.793594 C96.0594131,165.382794 94.5334131,162.739394 91.7981131,160.854694 C89.0545131,158.969994 85.8272131,158.194594 82.1163131,158.519694 C75.3949131,159.103394 70.0412131,162.555894 66.0468131,168.868594 C62.0440131,175.181294 60.4012131,182.394694 61.1183131,190.516994 C61.1600131,191.008994 61.2184131,191.492694 61.2851131,191.968094 C61.1100131,192.076394 60.9599131,192.209894 60.8265131,192.368394 C54.8890131,200.765894 49.1600131,205.210594 43.6478131,205.694394 C37.8271131,206.202994 34.5248131,201.891694 33.7242131,192.768694 C33.4073131,189.191194 33.4073131,184.829794 33.7075131,179.684494 C33.7158131,179.501094 33.7325131,179.309194 33.7408131,179.117394 C42.2635131,171.403694 49.8521131,162.022094 56.5234131,150.981094 C63.1864131,139.940094 66.1385131,130.099894 65.3796131,121.477194 C65.1211131,118.466694 64.0954131,115.981594 62.3024131,114.013594 C60.5179131,112.045594 58.2162131,111.186594 55.4059131,111.436794 C49.0931131,111.987094 43.5226131,116.823894 38.7109131,125.930294 C33.8992131,135.045094 30.5052131,145.043694 28.5288131,155.926194 C26.7526131,165.274494 25.7269131,173.646894 25.4434131,181.043794 C24.8680131,181.727694 24.3092131,182.378094 23.7756131,182.995194 C21.7992131,185.280094 19.3808131,188.056994 15.9201131,191.450994 C11.9924131,195.311994 8.06461306,198.705994 8.06461306,198.705994 C2.79421306,203.259294 -0.36628694,205.419094 0.0340130603,208.054294 C0.0924130603,208.412894 0.21751306,209.205094 0.81791306,209.571994 C1.99381306,210.297594 4.43711306,209.063394 12.9013131,201.116194 C18.3301131,196.012494 22.1328131,192.009794 22.3829131,191.742994 C23.3002131,190.767294 24.3259131,189.683094 25.4267131,188.482294 C25.4684131,189.883394 25.5518131,191.242594 25.6685131,192.560294 C26.8944131,206.503394 32.2148131,213.057894 41.6380131,212.232394 C49.4434131,211.548594 56.6401131,207.062094 63.2281131,198.747894 C64.3872131,201.207894 66.0050131,203.309394 68.0732131,205.069094 C72.1677131,208.554794 77.1462131,210.039194 83.0170131,209.522194 C88.8795131,209.013494 94.4667131,206.953794 99.7621131,203.359494 C103.589713,200.757694 106.633613,198.122494 108.893513,195.445594 C108.843513,196.296194 108.801713,197.155194 108.760013,198.022394 C108.726713,198.739594 108.760013,199.690194 108.860113,200.899494 C109.202013,204.810494 110.678013,206.653394 113.288213,206.419894 C115.289613,206.244794 116.682213,205.619394 117.441113,204.543594 C118.208313,203.467894 119.392413,200.532494 120.993513,195.745794 C122.944913,189.199594 125.780213,182.311394 129.491113,175.064694 C133.202013,167.817894 135.762213,164.131994 137.163113,164.006994 C137.471613,163.981994 137.655113,164.398894 137.730213,165.249494 C137.805313,166.100094 137.329913,171.120294 136.320913,180.301594 C135.303513,189.491394 134.844913,195.795694 134.945013,199.223194 L135.011713,199.973594 C135.178513,201.874994 136.087513,203.117494 137.755313,203.676194 C138.389113,203.917994 138.756013,204.093194 138.864413,204.184894 C141.266013,203.976394 143.084013,201.641394 144.318213,197.188294 C146.428013,190.133394 149.446813,182.544794 153.391213,174.414094 C157.327313,166.291794 160.095913,162.155594 161.697013,162.013694 C162.405913,161.955394 162.806113,162.472394 162.897813,163.573194 C162.997913,164.682294 162.155713,168.893494 160.371113,176.231994 C158.586513,183.562194 157.861013,189.182694 158.202913,193.093794 C158.478113,196.204294 159.587213,198.455894 161.521913,199.848594 C163.464913,201.249494 165.841613,201.824894 168.651913,201.574794 C174.531013,201.066094 180.043213,197.555394 185.196813,191.050794 C185.938913,192.460094 186.847913,193.735994 187.923713,194.886894 C190.817413,197.972294 194.470013,199.314894 198.889713,198.931294 C205.511013,198.355894 210.522813,195.337194 213.941913,189.883394 C217.352613,184.429594 219.253913,178.708794 219.637613,172.712994 C223.148413,172.404494 226.992713,170.753294 231.179013,167.759594 C233.622413,166.008294 235.682213,164.023694 237.358313,161.788694 C237.116413,163.531594 236.908013,165.366094 236.741213,167.275794 C236.132413,174.197294 236.065713,180.318294 236.532713,185.630294 L236.757813,188.190494 C236.957913,190.500494 237.358213,192.209894 237.958613,193.310694 C238.559013,194.428194 239.768213,194.903494 241.569513,194.744994 C243.379113,194.586594 244.705013,194.194694 245.563913,193.560894 C246.414513,192.927094 247.198413,191.517794 247.923913,189.332894 C249.691813,181.902794 252.260313,175.114694 255.612613,168.960394 C258.964913,162.806094 261.883613,158.378094 264.377013,155.684494 C266.870513,152.990894 268.446513,151.614894 269.097013,151.556594 C269.747413,151.498294 270.097713,151.748394 270.147713,152.298794 C270.197713,152.849094 269.255413,157.127194 267.329113,165.124394 C265.402813,173.129994 264.627213,179.334294 265.019113,183.745694 C265.277613,186.756194 266.436813,189.007794 268.488213,190.492194 C270.531313,191.976494 273.241513,192.576994 276.602213,192.284994 C279.962913,191.993094 283.565413,190.408694 287.401413,187.548394 C289.261013,186.172394 290.995613,184.429594 292.605013,182.336394 C294.514713,188.073594 298.792613,190.642194 305.439013,190.066794 C309.241713,189.733094 312.785813,188.282094 316.046413,185.721994 C319.307013,183.161894 321.383513,180.026394 322.267413,176.315494 C322.292413,176.515594 322.309113,176.765694 322.334113,177.065894 C322.617713,180.276594 323.693413,182.778294 325.569713,184.587794 C327.446013,186.397294 329.939413,187.164694 333.050013,186.889394 C336.160513,186.614094 339.379413,185.046494 342.715113,182.177794 C345.066813,180.159694 347.043113,178.058194 348.652613,175.873394 C349.461513,177.974894 350.620713,179.776094 352.113413,181.277194 C354.882013,184.070794 358.251013,185.288394 362.212113,184.946394 C366.173213,184.596194 369.583913,182.836694 372.435913,179.651194 C375.287913,176.473894 377.189213,172.821394 378.148213,168.693394 C379.048813,173.263194 380.941913,176.690694 383.818913,178.958994 C386.695913,181.235594 390.215013,182.194594 394.376313,181.827594 C398.537513,181.460694 402.173413,179.984694 405.283913,177.382894 C407.994113,175.122994 410.562613,172.270994 413.014313,168.810294 C414.140113,170.995094 415.649513,172.888094 417.534113,174.497594 C421.628613,177.975094 426.607113,179.459494 432.477913,178.950694 C438.348713,178.433694 443.927613,176.382294 449.223013,172.788094 C454.518313,169.185494 458.312713,165.524594 460.614313,161.780294 C460.964613,161.246594 461.114713,160.604394 461.048013,159.845694 L461.048013,159.846094 Z M36.6013131,152.874494 C38.2608131,145.302594 40.6875131,138.039094 43.8647131,131.092694 C47.0503131,124.146094 50.2942131,120.526794 53.6048131,120.235094 C56.3067131,119.993194 57.7994131,121.435894 58.0746131,124.546394 C59.0086131,135.278894 50.8445131,151.098394 33.5741131,172.012894 C33.9327131,166.825994 34.9334131,160.446594 36.6012131,152.874594 L36.6013131,152.874494 Z M72.4514131,172.780194 C75.3534131,167.826694 78.9559131,165.158094 83.2673131,164.782894 C84.8768131,164.641194 86.3028131,165.049794 87.5453131,166.000394 C88.7878131,166.951194 89.5050131,168.435494 89.6801131,170.436894 C90.0137131,174.247994 87.7704131,177.833694 82.9587131,181.185994 C78.1470131,184.538394 73.4103131,186.614794 68.7321131,187.432094 C68.3068131,182.611994 69.5493131,177.733594 72.4514131,172.780194 Z M209.397113,185.655794 C207.220613,189.641894 204.326913,191.785094 200.716113,192.101994 C194.895313,192.610694 191.659813,189.058194 190.992613,181.436194 C190.450613,175.215194 191.743113,169.260994 194.887013,163.582094 C198.030813,157.903094 201.900213,154.859394 206.520113,154.450694 C209.622313,154.183894 211.381813,156.302094 211.773813,160.813494 L211.857213,163.540394 C210.589613,164.057394 209.597313,164.849694 208.888513,165.916994 C208.171313,166.992794 207.862813,168.135194 207.971213,169.335994 C208.196313,171.946294 209.730813,173.272094 212.566013,173.330494 C212.632713,177.566894 211.573613,181.677994 209.397113,185.655794 L209.397113,185.655794 Z M319.932713,165.149694 C319.257213,169.044094 317.789613,173.013594 315.513013,177.057994 C313.236413,181.094194 310.201013,183.278994 306.390013,183.612694 C301.770113,184.021294 299.210013,181.311094 298.701313,175.490394 C298.192613,169.677894 300.294113,163.131694 305.022413,155.843294 C309.734013,148.554894 315.454713,144.618794 322.176013,144.034994 C322.376213,144.018394 322.651313,144.018394 323.009913,144.034994 C323.368513,144.059994 323.643713,144.051694 323.843813,144.034994 L319.932713,165.149694 L319.932713,165.149694 Z M376.222113,155.367894 C375.821813,161.163694 374.404213,166.317294 371.969113,170.828694 C369.534113,175.340194 366.456913,177.750194 362.746013,178.075394 C360.744613,178.250594 359.010113,177.491694 357.542413,175.807194 C356.083013,174.114294 355.199113,171.512594 354.890613,168.001794 C354.365213,161.980894 355.908013,155.959994 359.527213,149.939094 C363.146413,143.909894 367.657913,140.657694 373.078313,140.182294 C373.778813,140.123894 375.046313,140.215694 376.889313,140.457594 L376.222113,155.367894 L376.222113,155.367894 Z M386.804513,114.272494 C387.771913,109.744394 388.747513,105.666494 389.748213,102.038994 C391.649513,94.9005937 394.459813,91.1729937 398.170713,90.8478937 C400.972713,90.5976937 402.565513,92.6323937 402.949113,96.9437937 C403.516213,103.464994 402.123513,110.911894 398.762813,119.292694 C395.402113,127.673594 390.315213,138.022494 383.510513,150.339394 C384.736313,130.825794 385.837113,118.809094 386.804413,114.272494 L386.804513,114.272494 Z M421.912413,142.200394 C424.814413,137.246994 428.416913,134.586794 432.736613,134.211594 C434.337713,134.069694 435.763713,134.470094 437.006213,135.429094 C438.248713,136.379694 438.965913,137.855694 439.141013,139.865494 C439.474613,143.676494 437.231313,147.253994 432.428013,150.606294 C427.616313,153.958694 422.871313,156.043494 418.193013,156.852294 C417.767713,152.040594 419.010213,147.153794 421.912313,142.200294 L421.912413,142.200394 Z" id="fullLogo" fill="#454FD0"></path>
            <path d="M237.710913,52.4481937 C237.429213,51.7694937 237.519013,50.9884937 237.992613,50.3994937 C238.658413,49.5672937 240.143613,46.0844937 240.515013,44.8808937 C241.692913,41.0011937 239.042613,34.9191937 238.825113,34.3941937 C238.466213,28.1200937 236.596913,14.1633937 227.147413,6.40399373 C217.301013,-1.71400627 202.537613,-0.203106272 196.660313,0.834193728 C194.419513,1.23109373 192.844613,3.19009373 192.908713,5.43089373 C193.126313,11.6153937 194.406713,17.6973937 196.698713,23.4336937 C180.923713,22.2684937 165.315413,27.0956937 152.985013,36.9806937 C131.755413,53.6390937 123.278813,80.6560937 132.280313,102.922794 L124.482713,120.579894 C123.586513,122.615794 125.225113,124.869394 127.440313,124.638794 L137.594313,123.588894 L145.648213,122.756594 C145.686313,122.743794 145.699513,122.730994 145.737613,122.718094 C146.160213,122.538894 146.608513,122.500394 147.030813,122.615694 L147.043613,122.615694 C147.312413,122.679694 147.555613,122.794994 147.773513,122.961394 C154.815913,128.121594 163.074613,131.335494 171.755913,132.334094 C188.081413,134.037094 204.419713,129.209894 217.249613,118.902394 C238.645513,102.115994 247.058013,74.8043937 237.710813,52.4481937 L237.710913,52.4481937 Z M168.593413,97.8009937 L164.956913,97.8009937 L164.956913,86.4947937 L152.767213,86.4947937 L152.767213,97.8009937 L149.131013,97.8009937 L149.131013,73.3447937 L152.767213,73.3447937 L152.767213,83.4217937 L164.956913,83.4217937 L164.956913,73.3447937 L168.593413,73.3447937 L168.593413,97.8009937 Z M196.032913,97.8011937 L179.681813,97.8011937 L179.681813,73.3447937 L195.866613,73.3447937 L195.866613,76.4178937 L183.215813,76.4178937 L183.215813,83.4602937 L195.290513,83.4602937 L195.290513,86.5333937 L183.215813,86.5333937 L183.215813,94.7280937 L196.494013,94.7280937 L196.032913,97.8011937 L196.032913,97.8011937 Z M215.597913,88.2489937 C215.521013,88.4025937 215.457213,88.5306937 215.457213,88.9019937 L215.457213,97.8009937 L211.795013,97.8009937 L211.795013,88.8891937 C211.795013,88.6458937 211.743713,88.4025937 211.628413,88.2105937 L203.036813,73.3447937 L207.185413,73.3447937 C209.349613,77.2628937 212.678513,83.3065937 213.817913,85.5472937 C214.880813,83.3576937 218.338213,77.2244937 220.578913,73.3447937 L224.420213,73.3447937 L215.597913,88.2489937 L215.597913,88.2489937 Z M211.641613,54.4328937 C200.476013,55.8669937 189.374813,46.8399937 186.263413,44.0485937 C188.619213,40.5401937 197.159913,28.9394937 208.325213,27.4925937 C209.976713,27.2877937 211.666913,27.2748937 213.357213,27.5053937 C222.422713,28.5681937 230.617413,35.1623937 233.703413,37.9152937 C230.975913,41.9741937 222.640313,52.9987937 211.641613,54.4328937 L211.641613,54.4328937 Z M207.723413,22.9983937 C205.828413,23.2543937 203.971513,23.7281937 202.166213,24.4196937 C199.234013,18.4784937 197.607813,11.9226937 197.428713,5.29009373 C201.538813,4.58589373 215.610713,2.76759373 224.279313,9.91239373 C231.308813,15.6614937 233.421413,26.0329937 234.061613,32.2942937 C228.632613,27.9792937 218.491713,21.5898937 207.723413,22.9984937 L207.723413,22.9983937 Z" id="fullLogo-2" fill="#454FD0"></path>
            <path d="M224.420213,73.3446937 L215.597913,88.2488937 C215.521013,88.4024937 215.457213,88.5305937 215.457213,88.9018937 L215.457213,97.8008937 L211.795013,97.8008937 L211.795013,88.8890937 C211.795013,88.6457937 211.743713,88.4024937 211.628413,88.2104937 L203.036813,73.3446937 L207.185413,73.3446937 C209.349613,77.2627937 212.678513,83.3064937 213.817913,85.5471937 C214.880813,83.3575937 218.338213,77.2243937 220.578913,73.3446937 L224.420213,73.3446937 L224.420213,73.3446937 Z" id="fullLogo-3" fill="#FBF65B"></path>
            <polygon id="fullLogo-4" fill="#FBF65B" points="168.593413 73.3446937 168.593413 97.8009937 164.956913 97.8009937 164.956913 86.4947937 152.767213 86.4947937 152.767213 97.8009937 149.131013 97.8009937 149.131013 73.3446937 152.767213 73.3446937 152.767213 83.4217937 164.956913 83.4217937 164.956913 73.3446937"></polygon>
            <polygon id="fullLogo-5" fill="#FBF65B" points="196.494013 94.7278937 196.032913 97.8009937 179.681813 97.8009937 179.681813 73.3446937 195.866613 73.3446937 195.866613 76.4177937 183.215813 76.4177937 183.215813 83.4601937 195.290513 83.4601937 195.290513 86.5331937 183.215813 86.5331937 183.215813 94.7278937"></polygon>
            <path d="M234.061613,32.2942937 C228.632613,27.9791937 218.491713,21.5897937 207.723413,22.9983937 C205.828413,23.2543937 203.971513,23.7281937 202.166213,24.4196937 C199.234013,18.4784937 197.607813,11.9226937 197.428713,5.29009373 C201.538813,4.58589373 215.610713,2.76759373 224.279313,9.91239373 C231.308813,15.6614937 233.421413,26.0329937 234.061613,32.2942937 L234.061613,32.2942937 Z" id="fullLogo-6" fill="#FBF65B"></path>
            <path d="M233.703313,37.9152937 C230.975813,41.9741937 222.640213,52.9987937 211.641513,54.4328937 C200.475913,55.8669937 189.374713,46.8399937 186.263313,44.0485937 C188.619113,40.5401937 197.159813,28.9394937 208.325113,27.4925937 C209.976613,27.2877937 211.666813,27.2748937 213.357113,27.5053937 C222.422613,28.5681937 230.617313,35.1623937 233.703313,37.9152937 L233.703313,37.9152937 Z" id="fullLogo-7" fill="#FBF65B"></path>
            <path d="M147.029713,122.616194 L145.652713,122.760094 C145.683613,122.749794 145.704113,122.729194 145.734913,122.718994 C146.156213,122.544294 146.608413,122.503294 147.029613,122.616294 L147.029713,122.616194 Z" id="fullLogo-8" fill="#384090"></path>
            <path d="M107.907113,247.156394 C107.907113,247.647594 107.746013,248.048994 107.425213,248.360494 C107.103413,248.671994 106.735313,248.828294 106.319713,248.828294 C105.979413,248.828294 105.672213,248.724794 105.398313,248.516794 C105.123913,248.308794 104.911513,248.025594 104.760613,247.666194 L103.286513,244.236494 L94.8392131,244.236494 L93.3651131,247.694494 C93.2328131,248.053894 93.0297131,248.332194 92.7557131,248.530394 C92.4818131,248.729594 92.1839131,248.828294 91.8626131,248.828294 C91.3714131,248.828294 90.9983131,248.696494 90.7430131,248.431794 C90.4881131,248.167194 90.3607131,247.807794 90.3607131,247.354694 C90.3607131,247.184794 90.3890131,247.005094 90.4457131,246.815594 L97.5038131,229.864394 C97.6547131,229.486494 97.8817131,229.194494 98.1840131,228.985494 C98.4862131,228.778494 98.8266131,228.693494 99.2045131,228.730594 C99.5448131,228.730594 99.8612131,228.830194 100.154213,229.028494 C100.447213,229.226794 100.659613,229.505994 100.791913,229.864394 L107.765013,246.475694 C107.859713,246.721794 107.907113,246.948394 107.907113,247.156394 L107.907113,247.156394 Z M96.2284131,240.976694 L101.897313,240.976694 L99.0345131,234.342894 L96.2283131,240.976694 L96.2284131,240.976694 Z" id="fullLogo-9" fill="#454FD0"></path>
            <path d="M129.365213,234.244294 C130.423313,234.915194 131.259713,235.845894 131.874013,237.036294 C132.487813,238.226694 132.794913,239.578294 132.794913,241.089994 C132.794913,242.601694 132.492713,243.958194 131.888213,245.157394 C131.283213,246.357594 130.456613,247.293094 129.407713,247.963994 C128.358813,248.634894 127.201213,248.969894 125.935513,248.969894 C125.028313,248.969894 124.172813,248.786294 123.370113,248.417194 C122.566413,248.048994 121.900413,247.599794 121.371613,247.070494 L121.371613,252.627094 C121.371613,253.118294 121.211013,253.529394 120.889713,253.859494 C120.567913,254.190594 120.162213,254.355594 119.670913,254.355594 C119.179213,254.355594 118.773013,254.195394 118.451713,253.874194 C118.130413,253.552994 117.969813,253.136894 117.969813,252.627094 L117.969813,235.250094 C117.969813,234.758894 118.130413,234.347794 118.451713,234.017694 C118.773013,233.686594 119.179213,233.521594 119.670913,233.521594 C120.162113,233.521594 120.567913,233.686594 120.889713,234.017694 C121.211013,234.347794 121.371613,234.758894 121.371613,235.250094 L121.371613,235.363394 C121.825213,234.796994 122.458013,234.300894 123.270513,233.876094 C124.083013,233.450294 124.933613,233.237394 125.821813,233.237394 C127.126013,233.237394 128.306713,233.573294 129.365313,234.244194 L129.365213,234.244294 Z M128.373013,244.491394 C129.147913,243.584194 129.535113,242.450394 129.535113,241.089994 C129.535113,239.729594 129.152813,238.599794 128.387213,237.702294 C127.622113,236.804794 126.625013,236.355594 125.397013,236.355594 C124.168013,236.355594 123.166513,236.804794 122.392113,237.702294 C121.616713,238.599794 121.230013,239.729594 121.230013,241.089994 C121.230013,242.450394 121.616713,243.584094 122.392113,244.491394 C123.166513,245.398594 124.168013,245.851794 125.397013,245.851794 C126.606013,245.851794 127.598213,245.398694 128.373113,244.491394 L128.373013,244.491394 Z" id="fullLogo-10" fill="#454FD0"></path>
            <path d="M148.696713,241.855594 C148.356913,242.138794 147.959913,242.280394 147.506313,242.280394 L138.151813,242.280394 C138.378913,243.395594 138.898413,244.269694 139.710913,244.902494 C140.523413,245.535294 141.439913,245.851694 142.460413,245.851694 C143.235313,245.851694 143.839813,245.781394 144.274913,245.639794 C144.709513,245.497194 145.054213,245.346794 145.309613,245.185694 C145.564513,245.025494 145.739313,244.916194 145.834013,244.859494 C146.173813,244.689594 146.495113,244.604594 146.797913,244.604594 C147.194413,244.604594 147.534713,244.746194 147.818413,245.030394 C148.101613,245.313594 148.243213,245.644694 148.243213,246.021594 C148.243213,246.532294 147.978613,246.995194 147.449713,247.411194 C146.920413,247.845794 146.211413,248.214894 145.323713,248.516694 C144.435013,248.818494 143.537613,248.969794 142.630813,248.969794 C141.043413,248.969794 139.658613,248.639694 138.478013,247.977594 C137.296813,247.316494 136.384713,246.404394 135.742613,245.242194 C135.100013,244.080094 134.778713,242.771494 134.778713,241.316394 C134.778713,239.691394 135.119013,238.264594 135.799213,237.036094 C136.479413,235.807594 137.376813,234.867194 138.492113,234.215794 C139.606813,233.563494 140.797313,233.237294 142.063913,233.237294 C143.311013,233.237294 144.487213,233.578094 145.592713,234.257794 C146.698213,234.938494 147.581513,235.855494 148.243113,237.007794 C148.904713,238.161094 149.235313,239.408194 149.235313,240.749994 C149.216313,241.203094 149.037113,241.571294 148.696713,241.855494 L148.696713,241.855594 Z M138.180113,239.445394 L145.606913,239.445394 L145.606913,239.247194 C145.531213,238.453294 145.144013,237.773594 144.444813,237.206194 C143.745613,236.639794 142.951613,236.355594 142.063913,236.355594 C139.871513,236.355594 138.577113,237.385894 138.180113,239.445394 L138.180113,239.445394 Z" id="fullLogo-11" fill="#454FD0"></path>
            <path d="M163.464813,234.244294 C164.522913,234.915194 165.359313,235.845894 165.973613,237.036294 C166.587413,238.226694 166.894513,239.578294 166.894513,241.089994 C166.894513,242.601694 166.592313,243.958194 165.987813,245.157394 C165.382813,246.357594 164.556213,247.293094 163.507313,247.963994 C162.458413,248.634894 161.300813,248.969894 160.035113,248.969894 C159.127913,248.969894 158.272413,248.786294 157.469713,248.417194 C156.666013,248.048994 156.000013,247.599794 155.471213,247.070494 L155.471213,252.627094 C155.471213,253.118294 155.310613,253.529394 154.989313,253.859494 C154.667513,254.190594 154.261813,254.355594 153.770513,254.355594 C153.278813,254.355594 152.872613,254.195394 152.551313,253.874194 C152.230013,253.552994 152.069413,253.136894 152.069413,252.627094 L152.069413,235.250094 C152.069413,234.758894 152.230013,234.347794 152.551313,234.017694 C152.872613,233.686594 153.278813,233.521594 153.770513,233.521594 C154.261713,233.521594 154.667513,233.686594 154.989313,234.017694 C155.310613,234.347794 155.471213,234.758894 155.471213,235.250094 L155.471213,235.363394 C155.924813,234.796994 156.557613,234.300894 157.370113,233.876094 C158.182613,233.450294 159.033213,233.237394 159.921413,233.237394 C161.225613,233.237394 162.406313,233.573294 163.464913,234.244194 L163.464813,234.244294 Z M162.472613,244.491394 C163.247513,243.584194 163.634713,242.450394 163.634713,241.089994 C163.634713,239.729594 163.252413,238.599794 162.486813,237.702294 C161.721713,236.804794 160.724613,236.355594 159.496613,236.355594 C158.267613,236.355594 157.266113,236.804794 156.491713,237.702294 C155.716313,238.599794 155.329613,239.729594 155.329613,241.089994 C155.329613,242.450394 155.716313,243.584094 156.491713,244.491394 C157.266113,245.398594 158.267613,245.851794 159.496613,245.851794 C160.705613,245.851794 161.697813,245.398694 162.472713,244.491394 L162.472613,244.491394 Z" id="fullLogo-12" fill="#454FD0"></path>
            <path d="M177.779713,231.367294 C177.514613,231.159294 177.382713,230.791094 177.382713,230.261794 L177.382713,229.722694 C177.382713,229.194394 177.524313,228.825194 177.808013,228.617194 C178.091213,228.409194 178.544813,228.305694 179.168413,228.305694 C179.830013,228.305694 180.292913,228.409194 180.557613,228.617194 C180.821813,228.825194 180.954613,229.194294 180.954613,229.722694 L180.954613,230.261794 C180.954613,230.809694 180.816913,231.182694 180.543513,231.380894 C180.269113,231.579094 179.801813,231.678794 179.140213,231.678794 C178.497613,231.678794 178.044013,231.575294 177.779813,231.367294 L177.779713,231.367294 Z M180.387613,248.190494 C180.065813,248.521594 179.659613,248.686594 179.168413,248.686594 C178.676713,248.686594 178.270913,248.521594 177.949613,248.190494 C177.627813,247.860394 177.467713,247.449294 177.467713,246.957094 L177.467713,235.250094 C177.467713,234.758894 177.627913,234.347794 177.949613,234.017694 C178.270913,233.686594 178.676713,233.521594 179.168413,233.521594 C179.659613,233.521594 180.065913,233.686594 180.387613,234.017694 C180.708413,234.347794 180.869513,234.758894 180.869513,235.250094 L180.869513,246.957094 C180.869513,247.449294 180.708413,247.860394 180.387613,248.190494 Z" id="fullLogo-13" fill="#454FD0"></path>
            <path d="M196.459413,234.953294 C197.196713,236.096894 197.564913,237.678894 197.564913,239.701294 L197.564913,246.957194 C197.564913,247.449394 197.404313,247.860494 197.083513,248.190594 C196.761713,248.521694 196.355513,248.686694 195.864313,248.686694 C195.372613,248.686694 194.966813,248.521694 194.645513,248.190594 C194.323713,247.860494 194.163613,247.449394 194.163613,246.957194 L194.163613,239.701294 C194.163613,238.662194 193.946313,237.843894 193.511713,237.249194 C193.076613,236.653494 192.330513,236.355594 191.272413,236.355594 C190.176213,236.355594 189.316313,236.672994 188.692813,237.305794 C188.068813,237.938594 187.757313,238.737394 187.757313,239.701294 L187.757313,246.957194 C187.757313,247.449394 187.596713,247.860494 187.275413,248.190594 C186.953613,248.521694 186.547913,248.686694 186.056613,248.686694 C185.564913,248.686694 185.158713,248.521694 184.837413,248.190594 C184.516113,247.860494 184.355513,247.449394 184.355513,246.957194 L184.355513,235.250194 C184.355513,234.758994 184.516113,234.347894 184.837413,234.017794 C185.158713,233.686694 185.564913,233.521694 186.056613,233.521694 C186.547813,233.521694 186.953613,233.686694 187.275413,234.017794 C187.596713,234.347894 187.757313,234.758994 187.757313,235.250194 L187.757313,235.732594 C188.267613,235.051894 188.933613,234.466994 189.755813,233.974794 C190.577613,233.483594 191.479913,233.237494 192.462813,233.237494 C194.390013,233.237494 195.722613,233.809794 196.459413,234.953294 L196.459413,234.953294 Z" id="fullLogo-14" fill="#454FD0"></path>
            <path d="M221.659113,234.017694 C221.980413,234.347794 222.141013,234.758894 222.141013,235.250094 L222.141013,247.297994 C222.141013,249.754094 221.479413,251.545094 220.156613,252.669094 C218.833813,253.793094 217.066813,254.355594 214.855813,254.355594 C214.213213,254.355594 213.556513,254.303794 212.885613,254.200294 C212.214713,254.095794 211.671213,253.959094 211.255713,253.789194 C210.329913,253.391694 209.867013,252.843894 209.867013,252.144694 C209.867013,252.012894 209.895313,251.861494 209.952013,251.691594 C210.065313,251.275594 210.259113,250.959194 210.533113,250.741394 C210.807013,250.524594 211.104413,250.416194 211.426213,250.416194 C211.614713,250.416194 211.794413,250.444494 211.964813,250.501194 C212.096613,250.557794 212.328113,250.651594 212.659113,250.784394 C212.989713,250.916194 213.339313,251.025594 213.707913,251.110594 C214.076513,251.195594 214.458913,251.237594 214.855813,251.237594 C216.197613,251.237594 217.184913,250.949494 217.818213,250.373294 C218.451013,249.797094 218.767913,248.809794 218.767913,247.411394 L218.767913,247.128194 C217.785013,248.356694 216.254213,248.969994 214.175613,248.969994 C213.192713,248.969994 212.323113,248.738594 211.567713,248.275694 C210.811813,247.812794 210.225913,247.170194 209.810413,246.347994 C209.394413,245.526694 209.186413,244.586294 209.186413,243.527694 L209.186413,235.250394 C209.186413,234.759194 209.347013,234.348094 209.668313,234.017994 C209.989613,233.686894 210.395813,233.521794 210.887513,233.521794 C211.378713,233.521794 211.784513,233.686894 212.106313,234.017994 C212.427613,234.348094 212.588213,234.759194 212.588213,235.250394 L212.588213,242.507194 C212.588213,243.697594 212.847513,244.553094 213.367513,245.072594 C213.887013,245.593094 214.647813,245.851894 215.649713,245.851894 C216.632113,245.851894 217.392913,245.564794 217.931413,244.987594 C218.470013,244.411394 218.739513,243.584294 218.739513,242.507094 L218.739513,235.250294 C218.739513,234.759094 218.899713,234.347994 219.220913,234.017894 C219.542213,233.686794 219.948413,233.521794 220.440113,233.521794 C220.931313,233.521794 221.337113,233.686794 221.658913,234.017894 L221.659113,234.017694 Z" id="fullLogo-15" fill="#454FD0"></path>
            <path d="M239.234313,245.185694 C238.554113,246.385894 237.623013,247.316594 236.442313,247.977694 C235.261113,248.639794 233.961813,248.969894 232.544413,248.969894 C231.108413,248.969894 229.804213,248.639794 228.632813,247.977694 C227.460913,247.316594 226.535113,246.385894 225.855013,245.185694 C225.174813,243.986494 224.834513,242.629994 224.834513,241.118294 C224.834513,239.606594 225.174813,238.251094 225.855013,237.050894 C226.535213,235.850694 227.461013,234.915194 228.632813,234.244294 C229.804213,233.573394 231.108413,233.237494 232.544413,233.237494 C233.961913,233.237494 235.261213,233.573394 236.442313,234.244294 C237.623013,234.915194 238.554113,235.850694 239.234313,237.050894 C239.914513,238.251094 240.254813,239.606594 240.254813,241.118294 C240.254813,242.629994 239.914513,243.986494 239.234313,245.185694 Z M236.271913,238.637794 C235.884713,237.910294 235.365213,237.347794 234.713313,236.951294 C234.061013,236.554794 233.338313,236.355594 232.544413,236.355594 C231.750913,236.355594 231.028313,236.554794 230.375913,236.951294 C229.724013,237.347794 229.204013,237.910294 228.816813,238.637794 C228.429613,239.365294 228.235713,240.192494 228.235713,241.118294 C228.235713,242.044094 228.429513,242.866294 228.816813,243.584094 C229.204013,244.302894 229.724013,244.859494 230.375913,245.256994 C231.028213,245.653494 231.750913,245.851694 232.544413,245.851694 C233.338313,245.851694 234.061013,245.653494 234.713313,245.256994 C235.365213,244.859494 235.884713,244.302894 236.271913,243.584094 C236.659113,242.866294 236.853413,242.044094 236.853413,241.118294 C236.853413,240.192494 236.659113,239.365394 236.271913,238.637794 Z" id="fullLogo-16" fill="#454FD0"></path>
            <path d="M255.561413,234.017694 C255.882713,234.347794 256.043313,234.758894 256.043313,235.250094 L256.043313,242.450294 C256.043313,244.491294 255.480813,246.088994 254.356813,247.241294 C253.232313,248.393594 251.630713,248.969794 249.552113,248.969794 C247.473513,248.969794 245.876313,248.393594 244.761613,247.241294 C243.646413,246.088994 243.088713,244.491294 243.088713,242.450294 L243.088713,235.250094 C243.088713,234.758894 243.249313,234.347794 243.570613,234.017694 C243.891913,233.686594 244.298113,233.521594 244.789813,233.521594 C245.281013,233.521594 245.686813,233.686594 246.008613,234.017694 C246.329913,234.347794 246.490513,234.758894 246.490513,235.250094 L246.490513,242.450294 C246.490513,243.603594 246.745413,244.458094 247.255613,245.015694 C247.765813,245.573294 248.531513,245.851594 249.552013,245.851594 C250.591113,245.851594 251.366013,245.573294 251.876213,245.015694 C252.386413,244.458094 252.641813,243.603594 252.641813,242.450294 L252.641813,235.250094 C252.641813,234.758894 252.802013,234.347794 253.123213,234.017694 C253.444513,233.686594 253.850713,233.521594 254.342413,233.521594 C254.833613,233.521594 255.239413,233.686594 255.561213,234.017694 L255.561413,234.017694 Z" id="fullLogo-17" fill="#454FD0"></path>
            <path d="M269.040013,233.719894 C269.427213,234.041194 269.621113,234.419094 269.621113,234.853694 C269.621113,235.439594 269.469713,235.879094 269.167513,236.172094 C268.865313,236.465094 268.505913,236.611594 268.090413,236.611594 C267.807213,236.611594 267.485413,236.545194 267.126513,236.412394 C267.069913,236.393794 266.942413,236.355794 266.744213,236.299094 C266.545513,236.242494 266.333113,236.214094 266.106513,236.214094 C265.614813,236.214094 265.142613,236.365494 264.689013,236.668194 C264.235413,236.969994 263.861913,237.428894 263.569413,238.042194 C263.275913,238.657394 263.129913,239.388894 263.129913,240.239494 L263.129913,246.957294 C263.129913,247.449494 262.969313,247.860594 262.648013,248.190694 C262.326213,248.521794 261.920513,248.686794 261.429213,248.686794 C260.937513,248.686794 260.531313,248.521794 260.210013,248.190694 C259.888713,247.860594 259.728113,247.449494 259.728113,246.957294 L259.728113,235.250294 C259.728113,234.759094 259.888713,234.347994 260.210013,234.017894 C260.531313,233.686794 260.937513,233.521794 261.429213,233.521794 C261.920413,233.521794 262.326213,233.686794 262.648013,234.017894 C262.969313,234.347994 263.129913,234.759094 263.129913,235.250294 L263.129913,235.619394 C263.564513,234.843994 264.188013,234.254194 265.000513,233.846894 C265.813013,233.441594 266.682613,233.237494 267.608413,233.237494 C268.175313,233.237494 268.652313,233.398594 269.040013,233.719894 L269.040013,233.719894 Z" id="fullLogo-18" fill="#454FD0"></path>
            <path d="M291.362713,234.244294 C292.420813,234.915194 293.257213,235.845894 293.871513,237.036294 C294.485313,238.226694 294.792413,239.578294 294.792413,241.089994 C294.792413,242.601694 294.490213,243.958194 293.885713,245.157394 C293.280713,246.357594 292.454113,247.293094 291.405213,247.963994 C290.356313,248.634894 289.198713,248.969894 287.933013,248.969894 C287.025813,248.969894 286.170313,248.786294 285.367613,248.417194 C284.563913,248.048994 283.897913,247.599794 283.369113,247.070494 L283.369113,252.627094 C283.369113,253.118294 283.208513,253.529394 282.887213,253.859494 C282.565413,254.190594 282.159713,254.355594 281.668413,254.355594 C281.176713,254.355594 280.770513,254.195394 280.449213,253.874194 C280.127913,253.552994 279.967313,253.136894 279.967313,252.627094 L279.967313,235.250094 C279.967313,234.758894 280.127913,234.347794 280.449213,234.017694 C280.770513,233.686594 281.176713,233.521594 281.668413,233.521594 C282.159613,233.521594 282.565413,233.686594 282.887213,234.017694 C283.208513,234.347794 283.369113,234.758894 283.369113,235.250094 L283.369113,235.363394 C283.822713,234.796994 284.455513,234.300894 285.268013,233.876094 C286.080513,233.450294 286.931113,233.237394 287.819313,233.237394 C289.123513,233.237394 290.304213,233.573294 291.362813,234.244194 L291.362713,234.244294 Z M290.370513,244.491394 C291.145413,243.584194 291.532613,242.450394 291.532613,241.089994 C291.532613,239.729594 291.150313,238.599794 290.384713,237.702294 C289.619613,236.804794 288.622513,236.355594 287.394513,236.355594 C286.165513,236.355594 285.164013,236.804794 284.389613,237.702294 C283.614213,238.599794 283.227513,239.729594 283.227513,241.089994 C283.227513,242.450394 283.614213,243.584094 284.389613,244.491394 C285.164013,245.398594 286.165513,245.851794 287.394513,245.851794 C288.603513,245.851794 289.595713,245.398694 290.370613,244.491394 L290.370513,244.491394 Z" id="fullLogo-19" fill="#454FD0"></path>
            <path d="M311.176713,245.185694 C310.496013,246.385894 309.565413,247.316594 308.383713,247.977694 C307.203013,248.639794 305.904213,248.969894 304.486213,248.969894 C303.049713,248.969894 301.746013,248.639794 300.574613,247.977694 C299.402713,247.316594 298.476913,246.385894 297.796813,245.185694 C297.116613,243.986494 296.776313,242.629994 296.776313,241.118294 C296.776313,239.606594 297.116613,238.251094 297.796813,237.050894 C298.477013,235.850694 299.402813,234.915194 300.574613,234.244294 C301.746013,233.573394 303.049713,233.237494 304.486213,233.237494 C305.904213,233.237494 307.203013,233.573394 308.383713,234.244294 C309.565313,234.915194 310.496013,235.850694 311.176713,237.050894 C311.856413,238.251094 312.196213,239.606594 312.196213,241.118294 C312.196213,242.629994 311.856413,243.986494 311.176713,245.185694 Z M308.213813,238.637794 C307.826113,237.910294 307.306613,237.347794 306.655213,236.951294 C306.002913,236.554794 305.280213,236.355594 304.486313,236.355594 C303.692413,236.355594 302.969713,236.554794 302.318313,236.951294 C301.666013,237.347794 301.146413,237.910294 300.758713,238.637794 C300.371513,239.365294 300.177613,240.192494 300.177613,241.118294 C300.177613,242.044094 300.371413,242.866294 300.758713,243.584094 C301.146413,244.302894 301.665913,244.859494 302.318313,245.256994 C302.969713,245.653494 303.692313,245.851694 304.486313,245.851694 C305.280313,245.851694 306.002913,245.653494 306.655213,245.256994 C307.306613,244.859494 307.826113,244.302894 308.213813,243.584094 C308.601513,242.866294 308.794913,242.044094 308.794913,241.118294 C308.794913,240.192494 308.601513,239.365394 308.213813,238.637794 Z" id="fullLogo-20" fill="#454FD0"></path>
            <path d="M325.520413,233.989394 C326.502813,234.490394 326.994013,235.156394 326.994013,235.987394 C326.994013,236.403394 326.871013,236.766694 326.625813,237.079194 C326.379713,237.390694 326.058413,237.545994 325.661913,237.545994 C325.359213,237.545994 325.113113,237.503994 324.924613,237.418994 C324.735113,237.333994 324.551613,237.220794 324.371913,237.079194 C324.192213,236.936594 324.017413,236.819394 323.847513,236.724694 C323.658013,236.629994 323.379713,236.544994 323.011613,236.468794 C322.642513,236.393594 322.345613,236.355494 322.118013,236.355494 C320.701013,236.355494 319.590713,236.794994 318.787913,237.673894 C317.984213,238.552794 317.582813,239.701194 317.582813,241.118194 C317.582813,242.478594 317.989013,243.608394 318.801613,244.505894 C319.614213,245.403394 320.654113,245.851594 321.919813,245.851594 C322.845613,245.851594 323.536013,245.738294 323.989113,245.511794 C324.102413,245.455194 324.258613,245.355594 324.456913,245.213894 C324.655213,245.072194 324.839713,244.963894 325.009613,244.887694 C325.179513,244.812494 325.387513,244.774394 325.633613,244.774394 C326.105313,244.774394 326.479313,244.925794 326.752713,245.228494 C327.027113,245.531194 327.163813,245.917994 327.163813,246.390594 C327.163813,246.843694 326.899213,247.269494 326.369913,247.665994 C325.840613,248.062494 325.141413,248.379894 324.272213,248.615194 C323.403113,248.851494 322.477313,248.969694 321.494913,248.969694 C320.039813,248.969694 318.759513,248.629894 317.654113,247.949194 C316.548613,247.269494 315.693213,246.329094 315.088713,245.128894 C314.483213,243.928694 314.181513,242.591794 314.181513,241.118194 C314.181513,239.586994 314.497913,238.226594 315.130713,237.036194 C315.763513,235.845794 316.647313,234.915094 317.781113,234.244194 C318.914913,233.573294 320.200013,233.237394 321.636613,233.237394 C323.243013,233.237394 324.537013,233.488394 325.520413,233.989394 L325.520413,233.989394 Z" id="fullLogo-21" fill="#454FD0"></path>
            <path d="M342.782113,246.985494 C342.782113,247.458194 342.597513,247.855594 342.229413,248.176894 C341.861313,248.498194 341.468713,248.658294 341.053613,248.658294 C340.561413,248.658294 340.146413,248.469794 339.805613,248.090894 L334.704013,242.705194 L333.314413,243.981594 L333.314413,246.957194 C333.314413,247.449394 333.154213,247.860494 332.833013,248.190594 C332.510713,248.521694 332.105513,248.686694 331.614213,248.686694 C331.122013,248.686694 330.715813,248.521694 330.394513,248.190594 C330.073213,247.860494 329.913113,247.449394 329.913113,246.957194 L329.913113,229.439594 C329.913113,228.948394 330.073313,228.537294 330.394513,228.206194 C330.715813,227.876094 331.122013,227.710094 331.614213,227.710094 C332.105413,227.710094 332.510713,227.876094 332.833013,228.206194 C333.154313,228.537294 333.314413,228.948394 333.314413,229.439594 L333.314413,239.927894 L339.380813,234.059694 C339.739213,233.701294 340.155213,233.521594 340.627913,233.521594 C341.043913,233.521594 341.417013,233.696394 341.748013,234.045994 C342.078113,234.395594 342.244113,234.750094 342.244113,235.108494 C342.244113,235.562594 342.016613,235.987394 341.563413,236.383894 L337.283113,240.324294 L342.244013,245.709994 C342.602413,246.088894 342.782113,246.513694 342.782113,246.985394 L342.782113,246.985494 Z" id="fullLogo-22" fill="#454FD0"></path>
            <path d="M358.203013,241.855594 C357.863213,242.138794 357.465713,242.280394 357.012613,242.280394 L347.658113,242.280394 C347.884713,243.395594 348.404213,244.269694 349.217713,244.902494 C350.029213,245.535294 350.946213,245.851694 351.966713,245.851694 C352.741113,245.851694 353.346613,245.781394 353.781213,245.639794 C354.215813,245.497194 354.560513,245.346794 354.815413,245.185694 C355.071313,245.025494 355.245113,244.916194 355.339813,244.859494 C355.680613,244.689594 356.001913,244.604594 356.303713,244.604594 C356.701213,244.604594 357.041013,244.746194 357.324213,245.030394 C357.608413,245.313594 357.750013,245.644694 357.750013,246.021594 C357.750013,246.532294 357.484413,246.995194 356.956113,247.411194 C356.426813,247.845794 355.717813,248.214894 354.830113,248.516694 C353.941413,248.818494 353.044013,248.969794 352.136713,248.969794 C350.549813,248.969794 349.165013,248.639694 347.984413,247.977594 C346.802813,247.316494 345.890613,246.404394 345.249013,245.242194 C344.606413,244.080094 344.285113,242.771494 344.285113,241.316394 C344.285113,239.691394 344.624913,238.264594 345.305613,237.036094 C345.986313,235.807594 346.882713,234.867194 347.998013,234.215794 C349.113213,233.563494 350.303713,233.237294 351.570313,233.237294 C352.817413,233.237294 353.994113,233.578094 355.099613,234.257794 C356.205113,234.938494 357.087913,235.855494 357.750013,237.007794 C358.411113,238.161094 358.742213,239.408194 358.742213,240.749994 C358.722713,241.203094 358.543013,241.571294 358.203113,241.855494 L358.203013,241.855594 Z M347.686413,239.445394 L355.113213,239.445394 L355.113213,239.247194 C355.038013,238.453294 354.650313,237.773594 353.951113,237.206194 C353.251913,236.639794 352.457913,236.355594 351.570213,236.355594 C349.377813,236.355594 348.083913,237.385894 347.686413,239.445394 L347.686413,239.445394 Z" id="fullLogo-23" fill="#454FD0"></path>
            <path d="M369.612213,245.866294 C369.829013,246.121194 369.938413,246.457094 369.938413,246.872194 C369.938413,247.382894 369.659113,247.812594 369.101513,248.162194 C368.543913,248.511794 367.916013,248.686594 367.216713,248.686594 C366.044813,248.686594 365.057513,248.436594 364.254813,247.935594 C363.451113,247.434594 363.049713,246.372094 363.049713,244.746094 L363.049713,236.922894 L361.746013,236.922894 C361.291913,236.922894 360.914013,236.771494 360.612213,236.468794 C360.309513,236.166994 360.158113,235.789094 360.158113,235.334994 C360.158113,234.900394 360.309513,234.537094 360.612213,234.244194 C360.914013,233.951194 361.291913,233.804694 361.746013,233.804694 L363.049713,233.804694 L363.049713,231.990194 C363.049713,231.498994 363.214713,231.087894 363.545813,230.757794 C363.875913,230.426694 364.287013,230.261694 364.779213,230.261694 C365.250913,230.261694 365.648313,230.426694 365.969613,230.757794 C366.290913,231.087894 366.451013,231.498994 366.451013,231.990194 L366.451013,233.804694 L368.463713,233.804694 C368.917813,233.804694 369.295713,233.956094 369.597513,234.257794 C369.900213,234.560494 370.051613,234.938494 370.051613,235.391594 C370.051613,235.827094 369.900213,236.190394 369.597513,236.483394 C369.295713,236.776394 368.917813,236.922894 368.463713,236.922894 L366.451013,236.922894 L366.451013,244.604494 C366.451013,245.001994 366.554513,245.289994 366.763513,245.468794 C366.970513,245.649494 367.254713,245.738294 367.613113,245.738294 C367.764513,245.738294 367.972513,245.701194 368.237113,245.624994 C368.463713,245.531194 368.680513,245.483394 368.889413,245.483394 C369.153113,245.483394 369.394313,245.611294 369.612113,245.866194 L369.612213,245.866294 Z" id="fullLogo-24" fill="#454FD0"></path>
        </g>
    </g>
</svg>